<svg xmlns="http://www.w3.org/2000/svg" width="1200" height="750" viewBox="0 0 1200 750">
  <defs><linearGradient id="g" x1="0" y1="0" x2="1" y2="1"><stop stop-color="#020617"/><stop offset="1" stop-color="#312e81"/></linearGradient></defs>
  <rect width="1200" height="750" fill="url(#g)"/>
  <rect x="82" y="72" width="1036" height="606" rx="36" fill="#050816" stroke="#ffffff" stroke-opacity=".13"/>
  <text x="130" y="145" font-family="Arial" font-size="28" font-weight="700" fill="#fff">EYE PLEASURE</text>
  <text x="130" y="240" font-family="Arial" font-size="52" font-weight="700" fill="#fff">Find your next</text>
  <text x="130" y="299" font-family="Arial" font-size="52" font-weight="700" fill="#60a5fa">signature look.</text>
  <text x="130" y="348" font-family="Arial" font-size="19" fill="#94a3b8">Smart shopping experience with style quiz and recommendations.</text>
  <rect x="130" y="397" width="180" height="55" rx="16" fill="#2563eb"/><text x="176" y="432" font-family="Arial" font-size="18" font-weight="700" fill="#fff">Shop now</text>
  <rect x="720" y="150" width="290" height="440" rx="145" fill="#172554"/>
  <path d="M835 200c-60 0-100 49-100 110v215h200V310c0-61-40-110-100-110z" fill="#dbeafe"/>
  <path d="M795 254l40 65 40-65 48 92-18 179H765l-18-179z" fill="#1d4ed8"/>
  <circle cx="835" cy="218" r="40" fill="#f5d0c5"/>
  <path d="M793 201c16-43 92-42 92 12-11-16-31-20-47-20-18 0-33 5-45 8z" fill="#111827"/>
  <rect x="735" y="606" width="260" height="16" rx="8" fill="#0ea5e9" opacity=".5"/>
</svg>
