<svg xmlns="http://www.w3.org/2000/svg" width="1200" height="750" viewBox="0 0 1200 750">
  <defs><linearGradient id="g" x1="0" y1="0" x2="1" y2="1"><stop stop-color="#052e2b"/><stop offset="1" stop-color="#0f172a"/></linearGradient></defs>
  <rect width="1200" height="750" fill="url(#g)"/>
  <circle cx="155" cy="100" r="180" fill="#14b8a6" opacity=".15"/>
  <rect x="70" y="65" width="1060" height="620" rx="38" fill="#06131a" stroke="#5eead4" stroke-opacity=".22"/>
  <rect x="105" y="105" width="215" height="540" rx="26" fill="#0f252b"/>
  <text x="137" y="160" font-family="Arial" font-size="26" font-weight="700" fill="#fff">Medguide</text>
  <text x="137" y="190" font-family="Arial" font-size="16" fill="#5eead4">Study Hub</text>
  <rect x="137" y="240" width="150" height="44" rx="12" fill="#0d9488"/><text x="169" y="269" font-family="Arial" font-size="16" fill="#fff">Dashboard</text>
  <text x="137" y="330" font-family="Arial" font-size="16" fill="#94a3b8">Lectures</text><text x="137" y="385" font-family="Arial" font-size="16" fill="#94a3b8">Flashcards</text><text x="137" y="440" font-family="Arial" font-size="16" fill="#94a3b8">MCQs</text><text x="137" y="495" font-family="Arial" font-size="16" fill="#94a3b8">Study plan</text>
  <text x="370" y="145" font-family="Arial" font-size="34" font-weight="700" fill="#fff">Good morning, Mustafa</text>
  <text x="370" y="179" font-family="Arial" font-size="17" fill="#94a3b8">Keep the momentum — you are 72% through this week.</text>
  <rect x="370" y="225" width="320" height="170" rx="25" fill="#0f252b"/><text x="405" y="275" font-family="Arial" font-size="18" fill="#99f6e4">Weekly progress</text><text x="405" y="340" font-family="Arial" font-size="52" font-weight="700" fill="#fff">72%</text>
  <circle cx="616" cy="318" r="50" fill="none" stroke="#134e4a" stroke-width="14"/><path d="M616 268a50 50 0 1 1-43 75" fill="none" stroke="#2dd4bf" stroke-width="14" stroke-linecap="round"/>
  <rect x="720" y="225" width="330" height="170" rx="25" fill="#0f252b"/><text x="755" y="275" font-family="Arial" font-size="18" fill="#99f6e4">Focus session</text><text x="755" y="340" font-family="Arial" font-size="48" font-weight="700" fill="#fff">25:00</text>
  <rect x="370" y="430" width="680" height="175" rx="25" fill="#0f252b"/><text x="405" y="480" font-family="Arial" font-size="20" font-weight="700" fill="#fff">Today’s study plan</text><rect x="405" y="515" width="610" height="18" rx="9" fill="#12343a"/><rect x="405" y="515" width="430" height="18" rx="9" fill="#14b8a6"/>
</svg>
