<svg xmlns="http://www.w3.org/2000/svg" width="1200" height="750" viewBox="0 0 1200 750">
  <defs><linearGradient id="g" x1="0" y1="0" x2="1" y2="1"><stop stop-color="#111827"/><stop offset="1" stop-color="#581c87"/></linearGradient><linearGradient id="n" x1="0" y1="0" x2="1" y2="1"><stop stop-color="#22d3ee"/><stop offset="1" stop-color="#a855f7"/></linearGradient></defs>
  <rect width="1200" height="750" fill="url(#g)"/>
  <circle cx="220" cy="100" r="220" fill="#22d3ee" opacity=".14"/><circle cx="1030" cy="630" r="260" fill="#a855f7" opacity=".16"/>
  <g transform="translate(110 115)"><rect width="270" height="430" rx="30" fill="#0f172a" stroke="#fff" stroke-opacity=".15"/><rect x="24" y="25" width="222" height="230" rx="22" fill="url(#n)"/><circle cx="135" cy="140" r="65" fill="#fff" opacity=".9"/><path d="M105 145h60M135 115v60" stroke="#7e22ce" stroke-width="18" stroke-linecap="round"/><text x="30" y="310" font-family="Arial" font-size="24" font-weight="700" fill="#fff">CREATE.</text><text x="30" y="345" font-family="Arial" font-size="24" font-weight="700" fill="#67e8f9">CONNECT.</text><text x="30" y="380" font-family="Arial" font-size="24" font-weight="700" fill="#d8b4fe">CONVERT.</text></g>
  <g transform="translate(465 160)"><rect width="270" height="430" rx="30" fill="#f8fafc"/><circle cx="135" cy="140" r="88" fill="url(#n)"/><text x="54" y="310" font-family="Arial" font-size="31" font-weight="800" fill="#111827">BRAND</text><text x="54" y="350" font-family="Arial" font-size="31" font-weight="800" fill="#7e22ce">STORY</text><rect x="54" y="376" width="150" height="8" rx="4" fill="#22d3ee"/></g>
  <g transform="translate(820 110)"><rect width="270" height="430" rx="30" fill="#111827" stroke="#fff" stroke-opacity=".15"/><path d="M55 180c45-100 110-100 160 0-30 75-130 75-160 0z" fill="url(#n)"/><circle cx="135" cy="180" r="35" fill="#fff"/><text x="38" y="320" font-family="Arial" font-size="26" font-weight="700" fill="#fff">SOCIAL MEDIA</text><text x="38" y="360" font-family="Arial" font-size="18" fill="#cbd5e1">Visual campaign system</text></g>
</svg>
